<?xml version="1.0" standalone="no"?><!DOCTYPE svg PUBLIC "-//W3C//DTD SVG 1.1//EN" "http://www.w3.org/Graphics/SVG/1.1/DTD/svg11.dtd"><svg class="icon" width="200px" height="200.00px" viewBox="0 0 1024 1024" version="1.1" xmlns="http://www.w3.org/2000/svg"><path d="M829.7 954H186.5c-80.4 0-143.9-68.2-138.2-148.3l28.1-396.1c5.1-72.5 65.5-128.7 138.2-128.7h587c72.7 0 133 56.2 138.2 128.7l28.1 396.1C973.5 885.8 910 954 829.7 954z" fill="#FAB001" /><path d="M880.9 358.7c-1.7-24.1-9.6-46.3-21.9-65.3-17.6-8-37-12.6-57.4-12.6h-587c-72.7 0-133 56.2-138.2 128.7L48.3 805.7c-2.2 31.4 6.2 60.8 22.1 85.1 17.4 7.9 36.8 12.4 57.3 12.4h643.2c80.4 0 143.9-68.2 138.2-148.3l-28.2-396.2z" fill="#F9E48A" /><path d="M909 754.9l-28.1-396.1c-0.5-6.5-1.5-12.9-2.8-19.1-5.8-0.8-11.7-1.3-17.7-1.3h-587c-72.7 0-133 56.2-138.2 128.7l-28.1 396.1c-0.9 13.4 0.2 26.4 2.8 38.8 5.8 0.7 11.7 1.2 17.7 1.2h643.2c80.4 0 143.9-68.2 138.2-148.3z" fill="#FECE0A" /><path d="M358.4 280.8c6.9-76.9 71.5-137.2 150.2-137.2s143.3 60.3 150.2 137.2h79.5C731.1 160 631.1 64.2 508.6 64.2 386 64.2 286.1 160 278.9 280.8h79.5z" fill="#FE6A19" /><path d="M335.2 280.8c8.4-68.1 62-122 130-130.8 13.7-4.1 28.3-6.4 43.4-6.4 78.7 0 143.3 60.3 150.2 137.2h55C704.2 162.4 605.5 69.2 484.7 69.2c-12.1 0-23.8 1.2-35.4 3-94.1 25.1-164.4 108.1-170.4 208.6h56.3z" fill="#FC8308" /><path d="M302.8 434.2m-49.8 0a49.8 49.8 0 1 0 99.6 0 49.8 49.8 0 1 0-99.6 0Z" fill="#FFFFFF" /><path d="M701.2 434.2m-49.8 0a49.8 49.8 0 1 0 99.6 0 49.8 49.8 0 1 0-99.6 0Z" fill="#FFFFFF" /></svg>