<?xml version="1.0" standalone="no"?><!DOCTYPE svg PUBLIC "-//W3C//DTD SVG 1.1//EN" "http://www.w3.org/Graphics/SVG/1.1/DTD/svg11.dtd"><svg class="icon" width="200px" height="200.00px" viewBox="0 0 1024 1024" version="1.1" xmlns="http://www.w3.org/2000/svg"><path d="M981.287949 0H42.664693a42.664693 42.664693 0 0 0-42.664693 42.664693v938.623256l0.255988 4.693116a42.664693 42.664693 0 0 0 67.495545 29.822621l92.241067-67.111563 92.241068 67.111563 4.650451 2.943864a42.664693 42.664693 0 0 0 45.523228-2.986529l92.241067-67.068898 92.241067 67.111563 4.650452 2.943864a42.664693 42.664693 0 0 0 45.523228-2.986529l92.241067-67.068898 92.241067 67.111563 4.650452 2.943864a42.664693 42.664693 0 0 0 45.523228-2.986529l92.241067-67.068898 92.241067 67.111563A42.664693 42.664693 0 0 0 1023.952642 981.287949V42.664693a42.664693 42.664693 0 0 0-42.664693-42.664693z m-42.664694 85.329387v812.165104l-49.576373-36.051666-4.650452-2.943864a42.664693 42.664693 0 0 0-45.523228 2.986529L746.632135 928.469058l-92.241067-67.068898-4.650452-2.943864a42.664693 42.664693 0 0 0-45.523228 2.986529L511.976321 928.469058l-92.241067-67.068898-4.650452-2.943864a42.664693 42.664693 0 0 0-45.523228 2.986529L277.320507 928.469058l-92.241067-67.068898-4.650452-2.943864a42.664693 42.664693 0 0 0-45.523227 2.986529L85.329387 897.409161V85.329387h853.293868z" fill="#4C4A4A" /><path d="M554.641015 597.305708a42.664693 42.664693 0 0 1 4.991769 85.030734L554.641015 682.635095H213.323467a42.664693 42.664693 0 0 1-4.991769-85.030734L213.323467 597.305708h341.317548z m255.98816-170.658774a42.664693 42.664693 0 0 1 4.991769 85.030734L810.629175 511.976321H213.323467a42.664693 42.664693 0 0 1-4.991769-85.030734L213.323467 426.646934h597.305708z m0-170.658773a42.664693 42.664693 0 0 1 4.991769 85.030734L810.629175 341.317547H383.982241a42.664693 42.664693 0 0 1-4.991769-85.030734L383.982241 255.988161h426.646934zM213.323467 255.988161a42.664693 42.664693 0 1 1 0 85.329386 42.664693 42.664693 0 0 1 0-85.329386z" fill="#E02020" /></svg>