<?xml version="1.0" standalone="no"?><!DOCTYPE svg PUBLIC "-//W3C//DTD SVG 1.1//EN" "http://www.w3.org/Graphics/SVG/1.1/DTD/svg11.dtd"><svg class="icon" width="200px" height="192.12px" viewBox="0 0 1066 1024" version="1.1" xmlns="http://www.w3.org/2000/svg"><path d="M839.679147 253.494482a42.64712 42.64712 0 0 1 42.34859 37.700054l0.29853 4.947066-0.042647 200.95323 96.425138 209.397359a42.64712 42.64712 0 0 1-26.185331 58.63979l-4.989713 1.19412-111.650161 20.001499v105.935446l-0.597059 7.292658c-13.647078 78.598642-61.838324 123.975178-136.172255 123.975178l-12.154429-0.383824c-62.563325-3.625005-181.463496-33.563283-361.946108-90.198659a42.64712 42.64712 0 0 1-28.232393-28.829454l-1.151473-5.245595-17.91179-113.995752a42.64712 42.64712 0 0 1 83.204531-18.082379l1.066178 4.861772 13.732373 87.767773 42.64712 13.050018c134.509017 40.514764 225.944442 62.392737 270.809212 65.420683l9.936779 0.341177c28.786806 0 43.372121-12.026488 50.750073-46.144184l0.725001-3.880888v-137.494315a42.64712 42.64712 0 0 1 30.151514-40.813294l4.989713-1.19412 92.416309-16.589729-77.191287-167.773771a42.64712 42.64712 0 0 1-3.667652-13.220607l-0.255883-4.648536V296.141602a42.64712 42.64712 0 0 1 42.64712-42.64712z" fill="#E02020" /><path d="M984.124943 0a42.64712 42.64712 0 0 1 41.836825 50.920661c-37.444171 189.182625-108.323685 291.57836-219.76061 291.57836-186.28262 0-327.999 55.441256-338.234309 172.550248 0.767648 5.92795 1.151472 11.941194 1.151472 18.039732a42.64712 42.64712 0 0 1-82.948649 13.945608 42.561826 42.561826 0 0 1-4.094123-18.252967l0.213235-9.680897a63.97068 63.97068 0 1 0-68.576569 77.660406L319.853401 597.059681a42.64712 42.64712 0 0 1 0 85.29424 149.26492 149.26492 0 1 1 89.814834-268.506268c60.345675-110.541335 214.003249-156.642872 396.532923-156.642872 49.044188 0 90.838366-49.555954 120.947232-158.30611l3.625006-13.647078L368.42847 85.29424C231.019449 85.29424 139.456083 166.15318 88.961892 338.191662l-2.430885 8.44413v251.191537c0 74.547166 23.072092 132.632543 69.6001 177.028196l8.444129 7.676481a42.64712 42.64712 0 1 1-55.953021 64.397151C40.301528 787.564366 4.477948 708.027487 1.492649 611.133231l-0.213235-13.305902v-257.162134a42.64712 42.64712 0 0 1 1.492649-11.216192C60.55891 118.345758 179.970847 5.075007 356.316688 0.170588L368.471117 0h615.696473z" fill="#4C4A4A" /></svg>