<?xml version="1.0" standalone="no"?><!DOCTYPE svg PUBLIC "-//W3C//DTD SVG 1.1//EN" "http://www.w3.org/Graphics/SVG/1.1/DTD/svg11.dtd"><svg class="icon" width="200px" height="200.00px" viewBox="0 0 1024 1024" version="1.1" xmlns="http://www.w3.org/2000/svg"><path d="M512 266.667c-59.733 0-108.8-49.067-108.8-108.8V134.4c0-59.733 49.067-108.8 108.8-108.8s108.8 49.067 108.8 108.8v23.467c0 59.733-49.067 108.8-108.8 108.8z m0-179.2c-25.6 0-46.933 21.333-46.933 46.933v23.467c0 25.6 21.333 46.933 46.933 46.933s46.933-21.333 46.933-46.933V134.4c0-25.6-21.333-46.933-46.933-46.933z" fill="#FFBB12" /><path d="M512 204.8c-204.8 0-373.333 166.4-373.333 373.333v281.6c0 91.734 194.133 134.4 373.333 134.4 166.4 0 343.467-36.266 369.067-113.066 2.133-4.267 4.266-8.534 4.266-12.8V578.133c0-204.8-166.4-373.333-373.333-373.333z m0 725.333c-213.333 0-311.467-55.466-311.467-70.4V578.133c0-170.666 138.667-311.466 311.467-311.466s311.467 138.666 311.467 311.466v281.6c0 17.067-96 70.4-311.467 70.4z" fill="#543E3E" /><path d="M512 819.2c-17.067 0-32-14.933-32-32V637.867c0-17.067 14.933-32 32-32s32 14.933 32 32V787.2c0 17.067-14.933 32-32 32z" fill="#FFBB12" /></svg>