<?xml version="1.0" standalone="no"?><!DOCTYPE svg PUBLIC "-//W3C//DTD SVG 1.1//EN" "http://www.w3.org/Graphics/SVG/1.1/DTD/svg11.dtd"><svg class="icon" width="200px" height="200.00px" viewBox="0 0 1024 1024" version="1.1" xmlns="http://www.w3.org/2000/svg"><path d="M651.776 217.856a56.32 56.32 0 0 1 48.64 27.904l138.752 240.64a56.32 56.32 0 0 1 0 56.064l-138.752 240.384a56.32 56.32 0 0 1-48.64 27.904H374.016a56.32 56.32 0 0 1-48.64-27.904l-138.752-240.384a56.32 56.32 0 0 1 0-56.064l138.752-240.384a56.32 56.32 0 0 1 48.64-27.904h277.76m0-102.4H374.016a158.464 158.464 0 0 0-137.216 79.104L98.048 435.2a158.464 158.464 0 0 0 0 158.464l138.752 240.384a158.464 158.464 0 0 0 137.216 79.104h277.76a158.464 158.464 0 0 0 137.216-79.104l138.752-240.384a158.464 158.464 0 0 0 0-158.464l-138.752-240.384a158.464 158.464 0 0 0-137.216-79.104z" fill="#4C4C4C" /><path d="M512 437.504a74.496 74.496 0 1 1-74.496 74.496 74.496 74.496 0 0 1 74.496-74.496m0-102.4a176.896 176.896 0 1 0 176.896 176.896 176.896 176.896 0 0 0-176.896-176.896z" fill="#FCC53A" /></svg>