<?xml version="1.0" standalone="no"?><!DOCTYPE svg PUBLIC "-//W3C//DTD SVG 1.1//EN" "http://www.w3.org/Graphics/SVG/1.1/DTD/svg11.dtd"><svg class="icon" width="200px" height="200.00px" viewBox="0 0 1024 1024" version="1.1" xmlns="http://www.w3.org/2000/svg"><path d="M952.9 715.4H68c-2.5 0-4.5-2-4.5-4.5v-95h889.4c3 0 5.5 2.5 5.5 5.5v88.5c0 3.1-2.5 5.5-5.5 5.5z" fill="#FAB001" /><path d="M437.1 339H249.6c-19.3 0-37.7 8.5-50.3 23.2L79.2 503.4c-10.2 11.9-15.7 27.1-15.7 42.8v128.4h383.1V348.5c0-5.2-4.3-9.5-9.5-9.5z" fill="#F9E48A" /><path d="M437.1 373.9h-167c-17.3 0-33.8 7.6-45 20.8L117.4 521.2c-9.1 10.7-14.1 24.3-14.1 38.3v115h343.3v-291c0-5.3-4.3-9.6-9.5-9.6z" fill="#FECE0A" /><path d="M372.7 496.9H222.8c-10.9 0-16.5-12.9-9.2-20.9l54.7-59.7c2.4-2.6 5.7-4.1 9.2-4.1h95.3c6.9 0 12.5 5.6 12.5 12.5v59.7c-0.1 6.9-5.7 12.5-12.6 12.5z" fill="#39AFDA" /><path d="M916.3 674.5H428.6v-58.6h487.7c1.7 0 3.2 1.4 3.2 3.2v52.3c0 1.7-1.4 3.1-3.2 3.1z" fill="#FECE0A" /><path d="M897.8 615.9H446.6V253.2c0-3.5 2.9-6.4 6.4-6.4h438.4c3.5 0 6.4 2.9 6.4 6.4v362.7z" fill="#F24501" /><path d="M869.3 615.9h-395V281.2c0-3.2 2.6-5.7 5.7-5.7h383.6c3.2 0 5.7 2.6 5.7 5.7v334.7z" fill="#FE6A19" /><path d="M274.9 741.6m-60.7 0a60.7 60.7 0 1 0 121.4 0 60.7 60.7 0 1 0-121.4 0Z" fill="#47464A" /><path d="M274.9 680.9c-33.5 0-60.7 27.2-60.7 60.7 0 17 7 32.4 18.4 43.5l88.3-83.1c-11.1-12.9-27.6-21.1-46-21.1z" fill="#626166" /><path d="M274.9 741.6m-43 0a43 43 0 1 0 86 0 43 43 0 1 0-86 0Z" fill="#6D6D6D" /><path d="M821.2 741.6m-60.7 0a60.7 60.7 0 1 0 121.4 0 60.7 60.7 0 1 0-121.4 0Z" fill="#47464A" /><path d="M821.2 680.9c-33.5 0-60.7 27.2-60.7 60.7 0 17 7 32.4 18.4 43.5l88.3-83.1c-11.2-12.9-27.6-21.1-46-21.1z" fill="#626166" /><path d="M821.2 741.6m-43 0a43 43 0 1 0 86 0 43 43 0 1 0-86 0Z" fill="#6D6D6D" /><path d="M817.5 275.4H526.1c-28.6 0-51.9 23.2-51.9 51.9v288.6h3.5L852 288.7c-9.2-8.2-21.3-13.3-34.5-13.3z" fill="#FF9843" /><path d="M818.1 571.8H525.5v-248c0-2.3 1.9-4.3 4.3-4.3h284.1c2.3 0 4.3 1.9 4.3 4.3v248z" fill="#FC8308" /><path d="M699.6 394.5l-23.3-13.4c-2.8-1.6-6.2-1.6-9 0L644 394.5c-6 3.5-13.5-0.9-13.5-7.8v-67.1h82.7v67.1c-0.1 6.9-7.6 11.3-13.6 7.8z" fill="#3FB4E0" /><path d="M364.7 433.1v-20.9h-87.3c-3.5 0-6.9 1.5-9.2 4.1L213.6 476c-2.4 2.7-3.3 5.9-3.2 9h68.9l85.4-51.9z" fill="#9CE4F3" /><path d="M355.7 485H227.8l52.9-57.9c1.7-1.9 4.1-2.9 6.6-2.9h77.3V476c0.1 5-3.9 9-8.9 9z" fill="#52C5F8" /></svg>