<?xml version="1.0" standalone="no"?><!DOCTYPE svg PUBLIC "-//W3C//DTD SVG 1.1//EN" "http://www.w3.org/Graphics/SVG/1.1/DTD/svg11.dtd"><svg class="icon" width="200px" height="200.00px" viewBox="0 0 1024 1024" version="1.1" xmlns="http://www.w3.org/2000/svg"><path d="M485 160a324.87 324.87 0 1 1-126.88 25.6A323.86 323.86 0 0 1 485 160m0-50c-207.66 0-376 168.34-376 376s168.34 376 376 376 376-168.34 376-376-168.34-376-376-376zM749.89 721.89a27.51 27.51 0 0 0-19.44 47l120.91 120.86a27.5 27.5 0 1 0 38.89-38.89L769.34 730a27.43 27.43 0 0 0-19.45-8.06z"  /><path d="M423 777a14.73 14.73 0 0 1-2.94-0.29 254.87 254.87 0 0 1-104.42-47.06c-25-18.81-47.65-42.58-67.42-70.64-33.49-47.52-47-90.78-47.58-92.6a15 15 0 0 1 28.67-8.84c0.13 0.41 13 41.21 44 84.92 18 25.34 38.44 46.71 60.86 63.53a225.21 225.21 0 0 0 91.77 41.27A15 15 0 0 1 423 777z" fill="#FF4339" /></svg>