<?xml version="1.0" standalone="no"?><!DOCTYPE svg PUBLIC "-//W3C//DTD SVG 1.1//EN" "http://www.w3.org/Graphics/SVG/1.1/DTD/svg11.dtd"><svg class="icon" width="200px" height="200.00px" viewBox="0 0 1024 1024" version="1.1" xmlns="http://www.w3.org/2000/svg"><path d="M561.42 864.62a20 20 0 0 1-20-20V773a20 20 0 0 1 40 0v71.62a20 20 0 0 1-20 20z"  /><path d="M618.8 890.23H504a20 20 0 0 1 0-40h114.8a20 20 0 0 1 0 40zM343.67 311.08c0-113.95 92.41-206.33 206.43-206.33s206.43 92.45 206.43 206.33v186c0 114-92.4 206.33-206.43 206.33S343.67 611 343.67 497.07z m61.93 0v186c0 79.69 64.73 144.4 144.5 144.4a144.43 144.43 0 0 0 144.5-144.4v-186c0-79.68-64.72-144.4-144.5-144.4a144.44 144.44 0 0 0-144.5 144.4z"  /><path d="M550.51 769.5a304.07 304.07 0 0 1-304.07-304.07 20 20 0 0 1 40 0 264.07 264.07 0 1 0 528.14 0 20 20 0 1 1 40 0A304.07 304.07 0 0 1 550.51 769.5z"  /><path d="M639 361H461a15 15 0 0 1 0-30h178a15 15 0 0 1 0 30zM639 477H461a15 15 0 0 1 0-30h178a15 15 0 0 1 0 30z" fill="#FF4339" /></svg>