<?xml version="1.0" standalone="no"?><!DOCTYPE svg PUBLIC "-//W3C//DTD SVG 1.1//EN" "http://www.w3.org/Graphics/SVG/1.1/DTD/svg11.dtd"><svg class="icon" width="200px" height="200.00px" viewBox="0 0 1024 1024" version="1.1" xmlns="http://www.w3.org/2000/svg"><path d="M916 261.57v84.86C916 410.71 864.46 463 801.11 463H229.89C166.54 463 115 410.71 115 346.43v-84.86C115 197.29 166.54 145 229.89 145H321a25 25 0 0 1 0 50h-91.11c-35.78 0-64.89 29.86-64.89 66.57v84.86c0 36.71 29.11 66.57 64.89 66.57h571.22c35.78 0 64.89-29.86 64.89-66.57v-84.86c0-36.71-29.11-66.57-64.89-66.57H685a25 25 0 0 1 0-50h116.11C864.46 145 916 197.29 916 261.57z"  /><path d="M761.94 938H272.06c-29.61 0-57.22-13.21-77.73-37.19-19.56-22.87-30.33-53-30.33-84.91V436.06h50V815.9c0 39.75 26 72.1 58.06 72.1h489.88c32 0 58.06-32.35 58.06-72.1V436.06h50V815.9c0 31.89-10.77 62-30.33 84.91-20.51 23.98-48.12 37.19-77.73 37.19z"  /><path d="M481 97m25 0l0 0q25 0 25 25l0 222q0 25-25 25l0 0q-25 0-25-25l0-222q0-25 25-25Z" fill="#FF4339" /><path d="M610.825514 212.825218m15.407857 15.407856l4.539626 4.539626q15.407857 15.407857 0 30.815714l-107.847927 107.847926q-15.407857 15.407857-30.815713 0l-4.539626-4.539626q-15.407857-15.407857 0-30.815713l107.847927-107.847927q15.407857-15.407857 30.815713 0Z" fill="#FF4339" /><path d="M367.15846 248.1709m15.407857-15.407857l4.539626-4.539625q15.407857-15.407857 30.815713 0l107.847926 107.847926q15.407857 15.407857 0 30.815713l-4.539625 4.539626q-15.407857 15.407857-30.815714 0l-107.847926-107.847926q-15.407857-15.407857 0-30.815714Z" fill="#FF4339" /></svg>