<?xml version="1.0" standalone="no"?><!DOCTYPE svg PUBLIC "-//W3C//DTD SVG 1.1//EN" "http://www.w3.org/Graphics/SVG/1.1/DTD/svg11.dtd"><svg class="icon" width="200px" height="200.00px" viewBox="0 0 1024 1024" version="1.1" xmlns="http://www.w3.org/2000/svg"><path d="M504.37 940A427.6 427.6 0 0 1 338 118.61 427.37 427.37 0 0 1 931.87 512.5a430.22 430.22 0 0 1-10 92.1 25 25 0 1 1-48.83-10.73 379.92 379.92 0 0 0 8.78-81.37 377.87 377.87 0 1 0-95.15 250.58 25 25 0 1 1 37.38 33.2A426.47 426.47 0 0 1 504.37 940z"  /><path d="M815.72 489a23.76 23.76 0 0 0-16.85 7l-5.19 5.19a23.83 23.83 0 0 0 0 33.71l83.45 83.44a23.83 23.83 0 0 0 33.7 0l5.19-5.18a23.83 23.83 0 0 0 0-33.71L832.57 496a23.76 23.76 0 0 0-16.85-7z"  /><path d="M541.48 530.66H343a23.08 23.08 0 1 0 0 46.15h198.48a23.08 23.08 0 1 0 0-46.15z" fill="#FF4339" /><path d="M542.68 331a23.08 23.08 0 0 0-23.08 23.08v198.46a23.08 23.08 0 0 0 23.08 23.08 23.09 23.09 0 0 0 23.08-23.08V354.08A23.08 23.08 0 0 0 542.68 331z" fill="#FF4339" /></svg>