<?xml version="1.0" standalone="no"?><!DOCTYPE svg PUBLIC "-//W3C//DTD SVG 1.1//EN" "http://www.w3.org/Graphics/SVG/1.1/DTD/svg11.dtd"><svg class="icon" width="200px" height="200.00px" viewBox="0 0 1024 1024" version="1.1" xmlns="http://www.w3.org/2000/svg"><path d="M511.16 153a346.66 346.66 0 1 1-135.39 27.32A345.52 345.52 0 0 1 511.16 153m0-50c-219.73 0-397.85 178.12-397.85 397.85s178.12 397.86 397.85 397.86S909 720.59 909 500.87 730.88 103 511.16 103z"  /><path d="M701.68 474h-379a28.23 28.23 0 0 0 0 56.46h379a28.23 28.23 0 0 0 0-56.46z" fill="#FF4339" /><path d="M512.18 284.5a28.82 28.82 0 0 0-28.83 28.82v377.82a28.83 28.83 0 1 0 57.65 0V313.32a28.82 28.82 0 0 0-28.82-28.82z" fill="#FF4339" /></svg>