<?xml version="1.0" standalone="no"?><!DOCTYPE svg PUBLIC "-//W3C//DTD SVG 1.1//EN" "http://www.w3.org/Graphics/SVG/1.1/DTD/svg11.dtd"><svg class="icon" width="200px" height="200.00px" viewBox="0 0 1024 1024" version="1.1" xmlns="http://www.w3.org/2000/svg"><path d="M494 158.12a269.73 269.73 0 0 1 270 270c0 43.31-13.67 92-40.63 144.71-23.07 45.11-55.75 92.95-97.13 142.17-48.7 57.94-99 105.5-132.9 135.36-6.58-5.65-14.09-12.25-22.37-19.73a1207.15 1207.15 0 0 1-104.74-107c-42.48-49.43-76.09-97.91-99.91-144.11-28.08-54.45-42.32-105.4-42.32-151.4a269.71 269.71 0 0 1 270-270m0-50c-176.73 0-320 143.26-320 320 0 242 319.38 487.38 320 487.38 0-0.49 320-253 320-487.38 0-176.74-143.27-320-320-320z"  /><path d="M494 591a132 132 0 1 1 132-132 132.14 132.14 0 0 1-132 132z m0-224a92 92 0 1 0 92 92 92.1 92.1 0 0 0-92-92z" fill="#FF4339" /></svg>